<svg width="20" height="20" viewBox="0 0 20 20" fill="none" xmlns="http://www.w3.org/2000/svg">
    <g clipPath="url(#clip0_215_5)">
        <path d="M10 19.375C4.83063 19.375 0.625 15.1694 0.625 10C0.625 4.83063 4.83063 0.625 10 0.625C15.1694 0.625 19.375 4.83063 19.375 10C19.375 15.1694 15.1694 19.375 10 19.375ZM10 1.25C5.175 1.25 1.25 5.175 1.25 10C1.25 14.825 5.175 18.75 10 18.75C14.825 18.75 18.75 14.825 18.75 10C18.75 5.175 14.825 1.25 10 1.25Z" fill="#263238" />
        <path d="M14.775 12.9457L11.7987 11.9132L11.5968 10.2982C11.4625 10.4901 11.27 10.6395 11.0193 10.7176L11.2025 12.1832C11.2168 12.3013 11.2975 12.4013 11.41 12.4395L14.5693 13.537C15.1318 13.7332 15.625 14.4288 15.625 15.0251V15.0207C15.625 15.1932 15.765 15.3332 15.9375 15.3332C16.1093 15.3332 16.2493 15.1938 16.25 15.022C16.2481 14.1601 15.5875 13.2301 14.775 12.9457Z" fill="#263238" />
        <path d="M4.0625 15.3325C3.89 15.3325 3.75 15.1925 3.75 15.02V15.0244C3.75 14.1625 4.41188 13.23 5.22438 12.9456L8.20063 11.92L8.20813 11.745C8.22938 11.5737 8.38875 11.4544 8.5575 11.4737C8.72813 11.495 8.85 11.6512 8.82875 11.8231L8.79688 12.1912C8.7825 12.3094 8.70125 12.4087 8.58875 12.4475L5.43 13.5362C4.86812 13.7331 4.375 14.4287 4.375 15.0244V15.02C4.375 15.1931 4.235 15.3325 4.0625 15.3325Z" fill="#263238" />
        <path d="M10 11.2744C8.26315 11.2744 7.38003 10.1219 7.3744 7.23129C7.37315 6.49754 7.45128 5.75441 8.14128 5.06316C8.58065 4.62254 9.20565 4.39941 10 4.39941C10.7944 4.39941 11.4194 4.62254 11.8594 5.06379C12.5494 5.75441 12.6275 6.49816 12.6263 7.23191C12.62 10.1219 11.7369 11.2744 10 11.2744ZM10 5.02441C9.3694 5.02441 8.90628 5.18191 8.58315 5.50504C8.18815 5.90066 7.9969 6.25504 7.99878 7.23066C8.00378 9.74191 8.65815 10.65 9.9994 10.65C11.3407 10.65 11.995 9.74191 12 7.23066C12.0019 6.25504 11.8107 5.90066 11.4157 5.50504C11.0938 5.18191 10.6307 5.02441 10 5.02441Z" fill="#263238" />
    </g>
    <defs>
        <clipPath id="clip0_215_5">
            <rect width="20" height="20" rx="10" fill="white" />
        </clipPath>
    </defs>
</svg>