<svg width="226" height="226" viewBox="0 0 226 226" fill="none" xmlns="http://www.w3.org/2000/svg">
    <path d="M42.375 14.125H183.625C199.163 14.125 211.875 26.8375 211.875 42.375V183.625C211.875 199.163 199.163 211.875 183.625 211.875H42.375C26.8375 211.875 14.125 199.163 14.125 183.625V42.375C14.125 26.8375 26.8375 14.125 42.375 14.125Z" fill="#36AF48" />
    <path d="M100.288 53.675C92.5188 47.3188 83.3375 42.375 73.45 39.55C81.925 44.4938 91.1063 49.4375 97.4625 56.5C96.7563 62.8563 88.9875 67.0938 79.1 66.3875C79.1 65.6813 79.8063 65.6813 79.8063 64.975C77.6875 64.2688 74.8625 64.975 72.7438 63.5625C72.7438 62.8563 73.45 62.8563 73.45 62.15C71.3313 61.4438 69.2125 60.7375 67.8 59.325C67.8 58.6188 69.2125 59.325 69.2125 57.9125C67.8 56.5 65.6813 55.7938 64.2688 54.3813C64.975 53.675 65.6813 54.3813 66.3875 53.675C64.2688 51.5563 62.8563 50.85 61.4438 49.4375C62.15 48.7313 62.8563 49.4375 63.5625 48.7313C62.15 46.6125 60.0313 45.9063 59.325 43.7875C60.0313 43.7875 61.4438 44.4938 62.15 43.0813C60.7375 41.6688 58.6188 40.9625 57.9125 38.8438C58.6188 38.1375 59.325 38.8438 60.0313 38.1375C60.0313 36.0188 58.6188 35.3125 57.9125 33.1938C60.0313 32.4875 62.15 33.1938 63.5625 32.4875C63.5625 31.7813 62.8563 31.7813 62.8563 31.0751C65.6813 30.3688 67.8 31.075 69.9188 31.7813C70.625 31.075 69.2125 30.3688 69.9188 29.6625C72.0375 29.6625 73.45 30.3688 75.5688 31.0751C76.275 29.6626 74.8625 29.6625 74.8625 28.9563C76.9813 28.9563 79.1 30.3688 80.5125 31.0751C81.2188 30.3688 80.5125 29.6625 81.2188 28.9563C83.3375 29.6625 84.0438 31.075 85.4563 31.7813C86.8688 31.7813 86.1625 30.3688 86.8688 29.6625C88.2813 30.3688 89.6938 31.7813 91.1063 32.4875C92.5188 32.4875 91.8125 31.0751 92.5188 30.3688C93.9313 31.7813 95.3438 33.1938 96.7563 34.6063C97.4625 34.6063 97.4625 33.1938 98.1688 33.1938C101.7 37.4313 105.231 41.6688 104.525 48.025C105.231 50.85 103.113 52.9688 100.288 53.675Z" fill="white" />
    <path d="M156.788 57.9125C157.494 58.6187 158.2 58.6187 158.906 58.6187C156.787 60.0312 154.669 60.7375 152.55 61.4437C152.55 62.15 153.256 62.15 153.256 62.8562C151.138 64.2687 149.019 63.5625 146.9 64.2687C146.194 64.975 147.606 64.975 146.9 65.6812C144.781 65.6812 141.956 65.6812 139.837 64.975C134.894 63.5625 130.656 61.4437 128.538 55.7937C135.6 48.7312 144.075 43.7875 152.55 38.8437C142.663 42.375 134.187 46.6125 125.712 52.9687C122.181 51.5562 120.062 48.7312 120.062 45.2C120.062 40.9625 123.594 34.6062 127.125 31.7812L127.831 33.1937C129.95 31.7812 130.656 29.6625 132.069 28.9562C132.775 29.6625 132.069 30.3688 133.481 31.075C134.894 30.3688 135.6 28.9562 137.719 28.25C138.425 28.9562 137.719 29.6625 139.131 30.3688C141.25 30.3688 141.956 28.9562 144.075 28.25C144.075 28.9562 143.369 29.6625 144.075 30.3688C146.194 29.6625 148.312 28.25 150.431 28.25C150.431 28.9562 149.725 29.6625 149.725 30.3688C151.844 30.3688 153.256 28.9562 155.375 28.9562C155.375 29.6625 154.669 30.3688 155.375 31.075C157.494 30.3688 160.319 29.6625 162.438 30.3688C162.438 31.075 161.731 31.075 161.731 32.4875C163.85 33.1937 165.969 32.4875 167.381 33.1937C166.675 35.3125 165.262 36.0188 165.262 38.1375C165.969 38.8438 166.675 38.1375 167.381 38.8437C166.675 40.9625 164.556 41.6687 163.85 43.0812C164.556 43.7875 165.263 43.0812 166.675 43.7875C165.969 45.9062 163.85 46.6125 163.144 48.025C163.144 48.7313 164.556 48.7312 165.262 48.7312C164.556 50.85 162.437 51.5562 161.025 52.9687C161.731 53.675 162.438 53.675 162.438 53.675C161.025 55.7937 158.2 56.5 156.788 57.9125Z" fill="white" />
    <path d="M109.469 110.175C109.469 120.769 101.7 130.656 91.1062 133.481C80.5125 135.6 71.3312 128.538 70.625 117.238C69.9187 106.644 77.6875 96.7564 87.575 93.9314C99.5812 90.4001 109.469 98.1689 109.469 110.175Z" fill="white" />
    <path d="M156.081 115.119C156.081 127.125 145.488 134.894 134.188 131.363C123.594 127.831 116.531 116.531 117.944 105.938C119.356 95.3438 129.95 88.9875 140.544 93.225C149.725 96.05 156.081 105.231 156.081 115.119Z" fill="white" />
    <path d="M113.706 129.95C120.063 129.95 125.006 132.069 129.244 137.013C136.306 144.075 135.6 155.375 127.831 162.438C120.063 168.794 108.056 169.5 100.288 163.144C94.6375 158.906 91.8125 152.55 93.225 145.488C94.6375 137.719 100.288 133.481 107.35 131.363C109.469 129.95 111.588 129.244 113.706 129.95Z" fill="white" />
    <path d="M134.894 163.85C135.6 158.2 137.719 151.844 141.956 146.9C144.781 144.075 147.606 141.25 151.137 139.131C152.55 138.425 154.669 137.012 156.081 137.012C159.612 136.306 162.437 137.719 163.85 141.25C165.969 146.9 166.675 153.256 163.85 158.906C160.319 166.675 153.962 172.325 145.487 173.738C144.781 173.738 143.369 173.738 142.662 173.738C137.719 173.738 134.894 170.913 134.894 163.85Z" fill="white" />
    <path d="M60.0312 148.313C60.0312 148.313 60.0312 147.606 60.0312 146.9C60.7375 140.544 64.2688 138.425 70.625 139.838C80.5125 142.663 89.6938 153.963 90.4 164.556C90.4 170.913 87.575 173.738 81.2188 173.031C72.7438 171.619 67.0937 167.381 62.8562 159.613C60.7375 156.788 60.0312 152.55 60.0312 148.313Z" fill="white" />
    <path d="M114.412 91.1063C109.469 91.1063 105.231 90.4 100.994 88.2813C93.225 84.75 93.225 79.1 99.5812 74.1563C108.056 67.8 120.062 68.5063 127.831 75.5688C128.537 76.275 129.244 76.9813 129.95 77.6875C132.775 81.2188 132.069 84.75 128.538 87.575C125.713 89.6938 122.181 90.4 118.65 91.1063C117.237 91.1063 115.119 91.1063 114.412 91.1063Z" fill="white" />
    <path d="M113 191.394C105.938 191.394 99.5813 188.569 95.3438 182.919C93.225 180.094 93.225 178.681 96.05 176.563C100.288 173.738 104.525 173.031 108.763 172.325C114.413 171.619 120.769 171.619 126.419 173.738C127.831 174.444 129.244 174.444 130.656 175.15C134.188 177.269 134.188 178.681 132.069 182.213C132.069 182.213 132.069 182.213 131.363 182.919C126.419 187.863 120.769 190.688 113 191.394Z" fill="white" />
    <path d="M64.975 114.413C64.975 120.769 63.5625 126.419 61.4437 132.775C60.7375 134.188 60.0312 135.6 59.325 137.013C57.9125 139.131 56.5 139.131 54.3812 137.013C45.9062 128.538 47.3188 113 57.2063 105.938C60.7375 103.113 62.8563 103.819 64.2688 108.763C64.975 110.175 64.975 112.294 64.975 114.413Z" fill="white" />
    <path d="M176.562 122.888C176.562 127.831 175.15 132.775 170.913 136.306C169.5 137.719 168.088 137.719 166.675 136.306C164.556 134.188 163.85 131.363 163.144 128.538C161.731 122.181 161.025 116.531 161.025 110.175C161.025 108.763 161.731 107.35 161.731 105.938C162.437 103.819 164.556 103.113 166.675 104.525C173.031 108.056 176.562 115.119 176.562 122.888Z" fill="white" />
    <path d="M63.5625 97.4626C63.5625 89.6938 64.975 83.3376 71.3313 78.3938C77.6875 73.4501 84.75 72.7438 91.8125 74.1563C91.8125 76.2751 91.1062 76.9813 89.6937 78.3938C85.4562 83.3376 80.5125 87.5751 75.5687 91.8126C72.7437 93.9313 69.9187 96.0501 66.3875 97.4626C65.6812 97.4626 64.975 98.1688 63.5625 97.4626Z" fill="white" />
    <path d="M163.144 98.1688C161.731 98.875 160.319 98.1688 158.906 97.4625C154.669 95.3438 151.137 92.5188 147.606 88.9875C143.369 85.4563 139.837 81.925 136.306 78.3938C135.6 77.6875 134.188 76.275 134.188 74.8625C137.719 72.7438 149.019 73.45 155.375 79.1C161.025 83.3375 164.556 93.225 163.144 98.1688Z" fill="white" />
</svg>