<svg width="53" height="53" viewBox="0 0 53 53" fill="none" xmlns="http://www.w3.org/2000/svg">
    <rect width="53" height="53" rx="26.5" fill="#EAD9B5" />
    <path d="M11.6215 34.6679C10.0526 28.3762 9.26814 25.2304 10.9155 23.1153C12.5628 21 15.7972 21 22.266 21H30.734C37.2028 21 40.4372 21 42.0844 23.1153C43.7319 25.2304 42.9474 28.3762 41.3786 34.6679C40.3807 38.6695 39.8816 40.6702 38.3936 41.8351C36.9054 43 34.8484 43 30.734 43H22.266C18.1517 43 16.0946 43 14.6064 41.8351C13.1183 40.6702 12.6194 38.6695 11.6215 34.6679Z" stroke="#1C274C" strokeWidth="2" />
    <path d="M40 22L38.6739 17.263C38.1626 15.4365 37.9069 14.5232 37.3826 13.8354C36.8603 13.1504 36.1506 12.6224 35.3348 12.3119C34.5155 12 33.5438 12 31.6 12M12 22L13.3261 17.263C13.8374 15.4365 14.0931 14.5232 14.6175 13.8354C15.1397 13.1504 15.8494 12.6224 16.6652 12.3119C17.4844 12 18.4563 12 20.4 12" stroke="#1C274C" strokeWidth="2" />
    <path d="M21 12C21 10.8954 21.8208 10 22.8333 10H30.1667C31.1792 10 32 10.8954 32 12C32 13.1046 31.1792 14 30.1667 14H22.8333C21.8208 14 21 13.1046 21 12Z" stroke="#1C274C" strokeWidth="2" />
</svg>