<svg width="32" height="32" viewBox="0 0 32 32" fill="none" xmlns="http://www.w3.org/2000/svg">
<path d="M2 5.00001H11.1C11.3295 3.86972 11.9427 2.85353 12.8357 2.12363C13.7288 1.39373 14.8466 0.994995 16 0.994995C17.1534 0.994995 18.2712 1.39373 19.1643 2.12363C20.0573 2.85353 20.6705 3.86972 20.9 5.00001H30C30.2652 5.00001 30.5196 5.10536 30.7071 5.2929C30.8946 5.48044 31 5.73479 31 6.00001C31 6.26522 30.8946 6.51958 30.7071 6.70711C30.5196 6.89465 30.2652 7.00001 30 7.00001H2C1.73478 7.00001 1.48043 6.89465 1.29289 6.70711C1.10536 6.51958 1 6.26522 1 6.00001C1 5.73479 1.10536 5.48044 1.29289 5.2929C1.48043 5.10536 1.73478 5.00001 2 5.00001ZM16 3.00001C15.3811 3.00175 14.7778 3.19489 14.2729 3.55295C13.7681 3.91101 13.3863 4.41646 13.18 5.00001H18.82C18.6137 4.41646 18.2319 3.91101 17.7271 3.55295C17.2222 3.19489 16.6189 3.00175 16 3.00001ZM5.62 9.08001C5.80211 9.00343 6.00282 8.9825 6.19681 9.01988C6.3908 9.05725 6.56938 9.15125 6.71 9.29001C6.80268 9.38345 6.87601 9.49426 6.92577 9.6161C6.97554 9.73794 7.00076 9.8684 7 10C7 10.2652 6.89464 10.5196 6.70711 10.7071C6.51957 10.8947 6.26522 11 6 11C5.73478 11 5.48043 10.8947 5.29289 10.7071C5.10536 10.5196 5 10.2652 5 10C5.00368 9.73524 5.10727 9.48164 5.29 9.29001C5.38511 9.19897 5.49725 9.1276 5.62 9.08001ZM6 13C6.26522 13 6.51957 13.1054 6.70711 13.2929C6.89464 13.4804 7 13.7348 7 14V17C7 17.2652 6.89464 17.5196 6.70711 17.7071C6.51957 17.8947 6.26522 18 6 18C5.73478 18 5.48043 17.8947 5.29289 17.7071C5.10536 17.5196 5 17.2652 5 17V14C5 13.7348 5.10536 13.4804 5.29289 13.2929C5.48043 13.1054 5.73478 13 6 13ZM6 20C6.26522 20 6.51957 20.1054 6.70711 20.2929C6.89464 20.4804 7 20.7348 7 21V28C7 28.2652 7.10536 28.5196 7.29289 28.7071C7.48043 28.8946 7.73478 29 8 29H24C24.2652 29 24.5196 28.8946 24.7071 28.7071C24.8946 28.5196 25 28.2652 25 28V10C25 9.73479 25.1054 9.48044 25.2929 9.2929C25.4804 9.10536 25.7348 9.00001 26 9.00001C26.2652 9.00001 26.5196 9.10536 26.7071 9.2929C26.8946 9.48044 27 9.73479 27 10V28C27 28.7957 26.6839 29.5587 26.1213 30.1213C25.5587 30.6839 24.7956 31 24 31H8C7.20435 31 6.44129 30.6839 5.87868 30.1213C5.31607 29.5587 5 28.7957 5 28V21C5 20.7348 5.10536 20.4804 5.29289 20.2929C5.48043 20.1054 5.73478 20 6 20Z" fill="#231815"/>
<path d="M20 24V11C20 10.7348 20.1054 10.4804 20.2929 10.2929C20.4804 10.1054 20.7348 10 21 10C21.2652 10 21.5196 10.1054 21.7071 10.2929C21.8946 10.4804 22 10.7348 22 11V24C22 24.2652 21.8946 24.5196 21.7071 24.7071C21.5196 24.8946 21.2652 25 21 25C20.7348 25 20.4804 24.8946 20.2929 24.7071C20.1054 24.5196 20 24.2652 20 24ZM15 24V11C15 10.7348 15.1054 10.4804 15.2929 10.2929C15.4804 10.1054 15.7348 10 16 10C16.2652 10 16.5196 10.1054 16.7071 10.2929C16.8946 10.4804 17 10.7348 17 11V24C17 24.2652 16.8946 24.5196 16.7071 24.7071C16.5196 24.8946 16.2652 25 16 25C15.7348 25 15.4804 24.8946 15.2929 24.7071C15.1054 24.5196 15 24.2652 15 24ZM10 24V11C10 10.7348 10.1054 10.4804 10.2929 10.2929C10.4804 10.1054 10.7348 10 11 10C11.2652 10 11.5196 10.1054 11.7071 10.2929C11.8946 10.4804 12 10.7348 12 11V24C12 24.2652 11.8946 24.5196 11.7071 24.7071C11.5196 24.8946 11.2652 25 11 25C10.7348 25 10.4804 24.8946 10.2929 24.7071C10.1054 24.5196 10 24.2652 10 24Z" fill="#231815"/>
</svg>
