<svg width="48" height="48" viewBox="0 0 48 48" fill="none" xmlns="http://www.w3.org/2000/svg">
    <path d="M9 3H39C42.3 3 45 5.7 45 9V39C45 42.3 42.3 45 39 45H9C5.7 45 3 42.3 3 39V9C3 5.7 5.7 3 9 3Z" fill="#36AF48" />
    <path d="M21.3 11.4C19.65 10.05 17.7 9.00002 15.6 8.40002C17.4 9.45002 19.35 10.5 20.7 12C20.55 13.35 18.9 14.25 16.8 14.1C16.8 13.95 16.95 13.95 16.95 13.8C16.5 13.65 15.9 13.8 15.45 13.5C15.45 13.35 15.6 13.35 15.6 13.2C15.15 13.05 14.7 12.9 14.4 12.6C14.4 12.45 14.7 12.6 14.7 12.3C14.4 12 13.95 11.85 13.65 11.55C13.8 11.4 13.95 11.55 14.1 11.4C13.65 10.95 13.35 10.8 13.05 10.5C13.2 10.35 13.35 10.5 13.5 10.35C13.2 9.90002 12.75 9.75002 12.6 9.30002C12.75 9.30002 13.05 9.45002 13.2 9.15002C12.9 8.85002 12.45 8.70002 12.3 8.25002C12.45 8.10002 12.6 8.25002 12.75 8.10002C12.75 7.65002 12.45 7.50002 12.3 7.05002C12.75 6.90002 13.2 7.05002 13.5 6.90002C13.5 6.75002 13.35 6.75002 13.35 6.60002C13.95 6.45002 14.4 6.60002 14.85 6.75002C15 6.60002 14.7 6.45002 14.85 6.30002C15.3 6.30002 15.6 6.45002 16.05 6.60002C16.2 6.30002 15.9 6.30002 15.9 6.15002C16.35 6.15002 16.8 6.45002 17.1 6.60002C17.25 6.45002 17.1 6.30002 17.25 6.15002C17.7 6.30002 17.85 6.60002 18.15 6.75002C18.45 6.75002 18.3 6.45002 18.45 6.30002C18.75 6.45002 19.05 6.75002 19.35 6.90002C19.65 6.90002 19.5 6.60002 19.65 6.45002C19.95 6.75002 20.25 7.05002 20.55 7.35002C20.7 7.35002 20.7 7.05002 20.85 7.05002C21.6 7.95002 22.35 8.85002 22.2 10.2C22.35 10.8 21.9 11.25 21.3 11.4Z" fill="white" />
    <path d="M33.3 12.3C33.45 12.45 33.6 12.45 33.75 12.45C33.3 12.75 32.85 12.9 32.4 13.05C32.4 13.2 32.55 13.2 32.55 13.35C32.1 13.65 31.65 13.5 31.2 13.65C31.05 13.8 31.35 13.8 31.2 13.95C30.75 13.95 30.15 13.95 29.7 13.8C28.65 13.5 27.75 13.05 27.3 11.85C28.8 10.35 30.6 9.3 32.4 8.25C30.3 9 28.5 9.9 26.7 11.25C25.95 10.95 25.5 10.35 25.5 9.6C25.5 8.7 26.25 7.35 27 6.75L27.15 7.05C27.6 6.75 27.75 6.3 28.05 6.15C28.2 6.3 28.05 6.45 28.35 6.6C28.65 6.45 28.8 6.15 29.25 6C29.4 6.15 29.25 6.3 29.55 6.45C30 6.45 30.15 6.15 30.6 6C30.6 6.15 30.45 6.3 30.6 6.45C31.05 6.3 31.5 6 31.95 6C31.95 6.15 31.8 6.3 31.8 6.45C32.25 6.45 32.55 6.15 33 6.15C33 6.3 32.85 6.45 33 6.6C33.45 6.45 34.05 6.3 34.5 6.45C34.5 6.6 34.35 6.6 34.35 6.9C34.8 7.05 35.25 6.9 35.55 7.05C35.4 7.5 35.1 7.65 35.1 8.1C35.25 8.25 35.4 8.1 35.55 8.25C35.4 8.7 34.95 8.85 34.8 9.15C34.95 9.3 35.1 9.15 35.4 9.3C35.25 9.75 34.8 9.9 34.65 10.2C34.65 10.35 34.95 10.35 35.1 10.35C34.95 10.8 34.5 10.95 34.2 11.25C34.35 11.4 34.5 11.4 34.5 11.4C34.2 11.85 33.6 12 33.3 12.3Z" fill="white" />
    <path d="M23.25 23.4C23.25 25.65 21.6 27.75 19.35 28.35C17.1 28.8 15.15 27.3 15 24.9C14.85 22.65 16.5 20.55 18.6 19.95C21.15 19.2 23.25 20.85 23.25 23.4Z" fill="white" />
    <path d="M33.15 24.45C33.15 27 30.9 28.65 28.5 27.9C26.25 27.15 24.75 24.75 25.05 22.5C25.35 20.25 27.6 18.9 29.85 19.8C31.8 20.4 33.15 22.35 33.15 24.45Z" fill="white" />
    <path d="M24.15 27.6C25.5 27.6 26.55 28.05 27.45 29.1C28.95 30.6 28.8 33 27.15 34.5C25.5 35.85 22.95 36 21.3 34.65C20.1 33.75 19.5 32.4 19.8 30.9C20.1 29.25 21.3 28.35 22.8 27.9C23.25 27.6 23.7 27.45 24.15 27.6Z" fill="white" />
    <path d="M28.65 34.8C28.8 33.6 29.25 32.25 30.15 31.2C30.75 30.6 31.35 30 32.1 29.55C32.4 29.4 32.85 29.1 33.15 29.1C33.9 28.95 34.5 29.25 34.8 30C35.25 31.2 35.4 32.55 34.8 33.75C34.05 35.4 32.7 36.6 30.9 36.9C30.75 36.9 30.45 36.9 30.3 36.9C29.25 36.9 28.65 36.3 28.65 34.8Z" fill="white" />
    <path d="M12.75 31.5C12.75 31.5 12.75 31.35 12.75 31.2C12.9 29.85 13.65 29.4 15 29.7C17.1 30.3 19.05 32.7 19.2 34.95C19.2 36.3 18.6 36.9 17.25 36.75C15.45 36.45 14.25 35.55 13.35 33.9C12.9 33.3 12.75 32.4 12.75 31.5Z" fill="white" />
    <path d="M24.3 19.35C23.25 19.35 22.35 19.2 21.45 18.75C19.8 18 19.8 16.8 21.15 15.75C22.95 14.4 25.5 14.55 27.15 16.05C27.3 16.2 27.45 16.35 27.6 16.5C28.2 17.25 28.05 18 27.3 18.6C26.7 19.05 25.95 19.2 25.2 19.35C24.9 19.35 24.45 19.35 24.3 19.35Z" fill="white" />
    <path d="M24 40.65C22.5 40.65 21.15 40.05 20.25 38.85C19.8 38.25 19.8 37.95 20.4 37.5C21.3 36.9 22.2 36.75 23.1 36.6C24.3 36.45 25.65 36.45 26.85 36.9C27.15 37.05 27.45 37.05 27.75 37.2C28.5 37.65 28.5 37.95 28.05 38.7C28.05 38.7 28.05 38.7 27.9 38.85C26.85 39.9 25.65 40.5 24 40.65Z" fill="white" />
    <path d="M13.8 24.3C13.8 25.65 13.5 26.85 13.05 28.2C12.9 28.5 12.75 28.8 12.6 29.1C12.3 29.55 12 29.55 11.55 29.1C9.75 27.3 10.05 24 12.15 22.5C12.9 21.9 13.35 22.05 13.65 23.1C13.8 23.4 13.8 23.85 13.8 24.3Z" fill="white" />
    <path d="M37.5 26.1C37.5 27.15 37.2 28.2 36.3 28.95C36 29.25 35.7 29.25 35.4 28.95C34.95 28.5 34.8 27.9 34.65 27.3C34.35 25.95 34.2 24.75 34.2 23.4C34.2 23.1 34.35 22.8 34.35 22.5C34.5 22.05 34.95 21.9 35.4 22.2C36.75 22.95 37.5 24.45 37.5 26.1Z" fill="white" />
    <path d="M13.5 20.7C13.5 19.05 13.8 17.7 15.15 16.65C16.5 15.6 18 15.45 19.5 15.75C19.5 16.2 19.35 16.35 19.05 16.65C18.15 17.7 17.1 18.6 16.05 19.5C15.45 19.95 14.85 20.4 14.1 20.7C13.95 20.7 13.8 20.85 13.5 20.7Z" fill="white" />
    <path d="M34.65 20.85C34.35 21 34.05 20.85 33.75 20.7C32.85 20.25 32.1 19.65 31.35 18.9C30.45 18.15 29.7 17.4 28.95 16.65C28.8 16.5 28.5 16.2 28.5 15.9C29.25 15.45 31.65 15.6 33 16.8C34.2 17.7 34.95 19.8 34.65 20.85Z" fill="white" />
</svg>