<svg width="25" height="25" viewBox="0 0 25 25" fill="none" xmlns="http://www.w3.org/2000/svg">
    <path d="M14.3763 5.84211C15.5588 6.0728 16.6453 6.65105 17.4972 7.50288C18.349 8.35469 18.9273 9.44131 19.1579 10.6237M14.3763 1C16.8328 1.2729 19.1235 2.37294 20.8724 4.11954C22.6211 5.86612 23.7241 8.15543 24 10.6116M19.7632 24C9.40056 24 1 15.5994 1 5.23684C1 4.76931 1.0171 4.30578 1.05071 3.84683C1.08928 3.32012 1.10856 3.05677 1.24658 2.81704C1.36091 2.61849 1.5635 2.43019 1.76987 2.33067C2.01903 2.21053 2.30964 2.21053 2.89085 2.21053H6.30128C6.79004 2.21053 7.03443 2.21053 7.24392 2.29097C7.42897 2.36202 7.59375 2.47744 7.72377 2.62707C7.87096 2.79646 7.95447 3.02613 8.12151 3.48546L9.53312 7.36743C9.72741 7.90185 9.82462 8.16906 9.80815 8.42258C9.79363 8.64613 9.71724 8.86125 9.58772 9.04402C9.44083 9.25129 9.19702 9.39758 8.70939 9.69015L7.05263 10.6842C8.50756 13.8908 11.108 16.4946 14.3158 17.9474L15.3099 16.2906C15.6025 15.8029 15.7487 15.5591 15.9559 15.4123C16.1387 15.2828 16.3538 15.2064 16.5774 15.1918C16.8309 15.1754 17.0982 15.2726 17.6326 15.4669L21.5145 16.8785C21.9738 17.0455 22.2036 17.1291 22.3729 17.2763C22.5226 17.4063 22.638 17.571 22.709 17.7561C22.7895 17.9655 22.7895 18.2099 22.7895 18.6987V22.1092C22.7895 22.6903 22.7895 22.981 22.6693 23.2301C22.5698 23.4365 22.3815 23.6391 22.183 23.7534C21.9432 23.8914 21.6799 23.9107 21.1532 23.9493C20.6942 23.9829 20.2307 24 19.7632 24Z" stroke="black" stroke-width="2" stroke-linecap="round" stroke-linejoin="round" />
</svg>