<svg width="20" height="20" viewBox="0 0 20 20" fill="none" xmlns="http://www.w3.org/2000/svg">
    <mask id="mask0_215_40" style="mask-type:luminance" maskUnits="userSpaceOnUse" x="0" y="0" width="20" height="20">
        <path d="M20 0H0V20H20V0Z" fill="white" />
    </mask>
    <g mask="url(#mask0_215_40)">
        <path d="M10 19.8C4.58761 19.8 0.2 15.4124 0.2 10C0.2 4.58761 4.58761 0.2 10 0.2C15.4124 0.2 19.8 4.58761 19.8 10C19.8 15.4124 15.4124 19.8 10 19.8Z" stroke="black" strokeWidth="0.4" />
        <path d="M8.47824 13.0434C10.9995 13.0434 13.0435 10.9995 13.0435 8.47818C13.0435 5.95688 10.9995 3.91296 8.47824 3.91296C5.95694 3.91296 3.91302 5.95688 3.91302 8.47818C3.91302 10.9995 5.95694 13.0434 8.47824 13.0434Z" stroke="black" strokeWidth="0.5" strokeLinejoin="round" />
        <path d="M15.0816 15.5543C15.2121 15.6848 15.4238 15.6848 15.5543 15.5543C15.6848 15.4238 15.6848 15.2121 15.5543 15.0816L15.0816 15.5543ZM15.5543 15.0816L12.2119 11.7391L11.7391 12.2119L15.0816 15.5543L15.5543 15.0816Z" fill="black" />
    </g>
</svg>