<svg width="37" height="37" viewBox="0 0 37 37" fill="none" xmlns="http://www.w3.org/2000/svg">
    <g clip-path="url(#clip0_217_397)">
        <path d="M18.5 0C8.28265 0 0 8.28265 0 18.5C0 28.7173 8.28265 37 18.5 37C28.7173 37 37 28.7173 37 18.5C37 8.28265 28.7173 0 18.5 0Z" fill="#40B3E0" />
        <path d="M27.5018 10.642L24.1975 27.3017C24.1975 27.3017 23.7355 28.4571 22.4646 27.9025L14.8394 22.0565L12.0667 20.7164L7.39924 19.1451C7.39924 19.1451 6.68294 18.891 6.61357 18.3364C6.54434 17.7818 7.42237 17.4815 7.42237 17.4815L25.9767 10.2029C25.9767 10.2029 27.5018 9.53287 27.5018 10.642Z" fill="white" />
        <path d="M14.2533 27.1146C14.2533 27.1146 14.0307 27.0938 13.7534 26.2156C13.4762 25.3376 12.0667 20.7164 12.0667 20.7164L23.2732 13.5996C23.2732 13.5996 23.9203 13.2068 23.8972 13.5996C23.8972 13.5996 24.0127 13.6689 23.6661 13.9923C23.3195 14.3159 14.8625 21.9179 14.8625 21.9179" fill="#D2E5F1" />
        <path d="M17.7631 24.298L14.747 27.0478C14.747 27.0478 14.5113 27.2267 14.2533 27.1146L14.8308 22.0067" fill="#B5CFE4" />
    </g>
    <defs>
        <clipPath id="clip0_217_397">
            <rect width="37" height="37" fill="white" />
        </clipPath>
    </defs>
</svg>