<svg width="45" height="45" viewBox="0 0 45 45" fill="none" xmlns="http://www.w3.org/2000/svg">
    <rect width="45" height="45" rx="22.5" fill="#36AF48" />
    <path d="M32.5 14.8333L30.1667 23H16.6062M31.3333 27.6667H17.3333L15 12.5H11.5M21.4167 17.1667L23.75 19.5M23.75 19.5L26.0833 17.1667M23.75 19.5V12.5M18.5 32.3333C18.5 32.9777 17.9777 33.5 17.3333 33.5C16.689 33.5 16.1667 32.9777 16.1667 32.3333C16.1667 31.689 16.689 31.1667 17.3333 31.1667C17.9777 31.1667 18.5 31.689 18.5 32.3333ZM31.3333 32.3333C31.3333 32.9777 30.811 33.5 30.1667 33.5C29.5223 33.5 29 32.9777 29 32.3333C29 31.689 29.5223 31.1667 30.1667 31.1667C30.811 31.1667 31.3333 31.689 31.3333 32.3333Z" stroke="white" stroke-width="1.5" stroke-linecap="round" stroke-linejoin="round" />
</svg>