<svg width="37" height="37" viewBox="0 0 37 37" fill="none" xmlns="http://www.w3.org/2000/svg">
    <g clip-path="url(#clip0_217_394)">
        <path d="M18.5 37C28.7173 37 37 28.7173 37 18.5C37 8.28273 28.7173 0 18.5 0C8.28273 0 0 8.28273 0 18.5C0 28.7173 8.28273 37 18.5 37Z" fill="#2787F5" />
        <path d="M21.1677 9.81006H15.8323C10.9631 9.81006 9.81006 10.9631 9.81006 15.8323V21.1677C9.81006 26.0369 10.9631 27.1899 15.8323 27.1899H21.1677C26.0369 27.1899 27.1899 26.0369 27.1899 21.1677V15.8323C27.1899 10.9631 26.0247 9.81006 21.1677 9.81006ZM23.8415 22.2101H22.5769C22.0985 22.2101 21.9514 21.83 21.0929 20.9592C20.3446 20.2365 20.0136 20.1375 19.8282 20.1375C19.5706 20.1375 19.4969 20.2098 19.4969 20.5668V21.7075C19.4969 22.0143 19.3986 22.1982 18.5892 22.1982C17.2523 22.1982 15.7684 21.3888 14.7256 19.8799C13.1556 17.6722 12.7263 16.0162 12.7263 15.673C12.7263 15.4891 12.7986 15.3174 13.1556 15.3174H14.4202C14.7393 15.3174 14.8618 15.4645 14.9843 15.8081C15.6097 17.6111 16.6525 19.1934 17.08 19.1934C17.2393 19.1934 17.313 19.1211 17.313 18.715V16.8505C17.2639 15.992 16.8101 15.9183 16.8101 15.6119C16.8101 15.4648 16.9326 15.3174 17.1291 15.3174H19.1164C19.3863 15.3174 19.4843 15.4645 19.4843 15.7835V18.2977C19.4843 18.5676 19.6067 18.6655 19.6805 18.6655C19.8398 18.6655 19.9749 18.5672 20.2691 18.2731C21.1767 17.2552 21.8267 15.6853 21.8267 15.6853C21.9127 15.5013 22.0598 15.3297 22.3789 15.3297H23.6435C24.0236 15.3297 24.1096 15.5259 24.0236 15.7958C23.8643 16.5318 22.3189 18.715 22.3189 18.715C22.1841 18.9358 22.135 19.034 22.3189 19.279C22.4537 19.4629 22.897 19.8431 23.1897 20.1867C23.7295 20.8009 24.1465 21.3151 24.2567 21.6707C24.3813 22.0262 24.1971 22.2101 23.8415 22.2101Z" fill="white" />
    </g>
    <defs>
        <clipPath id="clip0_217_394">
            <rect width="37" height="37" fill="white" />
        </clipPath>
    </defs>
</svg>