<svg width="37" height="37" viewBox="0 0 37 37" fill="none" xmlns="http://www.w3.org/2000/svg">
    <path d="M19.6562 0C10.0594 0 2.3125 7.74687 2.3125 17.3438C2.3125 21.275 3.58437 24.975 6.0125 27.9813L3.58437 35.3813C3.46875 35.8438 3.58438 36.3063 3.93125 36.6531C4.04688 36.8844 4.39375 37 4.625 37C4.74062 37 4.97188 37 5.0875 36.8844L13.0656 33.3C15.1469 34.225 17.3438 34.6875 19.6562 34.6875C29.2531 34.6875 37 26.9406 37 17.3438C37 7.74687 29.2531 0 19.6562 0Z" fill="#25D366" />
    <path d="M29.7156 23.7031C29.2531 25.0906 27.5187 26.2469 26.0156 26.4781C25.6687 26.5938 25.3219 26.5938 24.8594 26.5938C23.9344 26.5938 22.5469 26.3625 20.1187 25.3219C17.3437 24.1656 14.5687 21.7375 12.3719 18.6156V18.5C11.6781 17.4594 10.4062 15.4938 10.4062 13.4125C10.4062 10.8688 11.6781 9.59688 12.1406 9.01875C12.7188 8.44063 13.5281 8.09375 14.4531 8.09375C14.6844 8.09375 14.8 8.09375 15.0312 8.09375C15.8406 8.09375 16.4187 8.325 16.9969 9.48125L17.4594 10.4062C17.8063 11.3312 18.2687 12.3719 18.3844 12.4875C18.7312 13.1813 18.7312 13.7594 18.3844 14.3375C18.2687 14.6844 18.0375 14.9156 17.8062 15.1469C17.6906 15.3781 17.575 15.4937 17.4594 15.4937C17.3438 15.6094 17.3437 15.6094 17.2281 15.725C17.575 16.3031 18.2688 17.3438 19.1938 18.1531C20.5813 19.425 21.6219 19.7719 22.2 20.0031C22.4313 19.7719 22.6625 19.3094 23.0094 18.9625L23.125 18.7313C23.7031 17.9219 24.6281 17.6906 25.5531 18.0375C26.0156 18.2688 28.5594 19.425 28.5594 19.425L28.7906 19.5406C29.1375 19.7719 29.6 19.8875 29.8312 20.35C30.2937 21.3906 29.9469 22.8938 29.7156 23.7031Z" fill="white" />
</svg>